<?xml version="1.0" encoding="UTF-8"?>
<svg xmlns="http://www.w3.org/2000/svg" xmlns:xlink="http://www.w3.org/1999/xlink" viewBox="0 0 32 32" width="32px" height="32px">
<g id="surface81283957">
<path style=" stroke:none;fill-rule:nonzero;fill:rgb(100%,100%,100%);fill-opacity:1;" d="M 15 2 C 7.835938 2 2 7.835938 2 15 C 2 22.164062 7.835938 28 15 28 C 22.164062 28 28 22.164062 28 15 C 28 7.835938 22.164062 2 15 2 Z M 15 4 C 21.085938 4 26 8.914062 26 15 C 26 21.085938 21.085938 26 15 26 C 8.914062 26 4 21.085938 4 15 C 4 8.914062 8.914062 4 15 4 Z M 20.289062 10.296875 L 13 17.585938 L 9.703125 14.296875 L 8.296875 15.703125 L 13 20.414062 L 21.710938 11.703125 Z M 20.289062 10.296875 "/>
</g>
</svg>
