<?xml version="1.0" encoding="UTF-8"?>
<svg xmlns="http://www.w3.org/2000/svg" xmlns:xlink="http://www.w3.org/1999/xlink" viewBox="0 0 32 32" width="32px" height="32px">
<g id="surface80369090">
<path style=" stroke:none;fill-rule:nonzero;fill:rgb(7.450981%,32.941177%,47.843137%);fill-opacity:1;" d="M 12.992188 2 C 11.351562 2 10 3.351562 10 4.992188 L 10 6 L 4 6 L 4 8 L 6 8 L 6 25 C 6 26.65625 7.34375 28 9 28 L 21 28 C 22.65625 28 24 26.65625 24 25 L 24 8 L 26 8 L 26 6 L 20 6 L 20 4.992188 C 20 3.351562 18.648438 2 17.007812 2 Z M 12.992188 4 L 17.007812 4 C 17.570312 4 18 4.429688 18 4.992188 L 18 6 L 12 6 L 12 4.992188 C 12 4.429688 12.429688 4 12.992188 4 Z M 10 10 L 12 10 L 12 24 L 10 24 Z M 14 10 L 16 10 L 16 24 L 14 24 Z M 18 10 L 20 10 L 20 24 L 18 24 Z M 18 10 "/>
</g>
</svg>
