<?xml version="1.0" encoding="UTF-8"?>
<svg xmlns="http://www.w3.org/2000/svg" xmlns:xlink="http://www.w3.org/1999/xlink" viewBox="0 0 32 32" width="32px" height="32px">
<g id="surface81149651">
<path style=" stroke:none;fill-rule:nonzero;fill:rgb(100%,100%,100%);fill-opacity:1;" d="M 4.929688 2 L 8.304688 5.375 C 5.671875 7.757812 4 11.179688 4 15 C 4 22.171875 9.828125 28 17 28 C 24.171875 28 30 22.171875 30 15 C 30 7.828125 24.171875 2 17 2 L 16 2 L 16 4 L 17 4 C 23.085938 4 28 8.914062 28 15 C 28 21.085938 23.085938 26 17 26 C 10.914062 26 6 21.085938 6 15 C 6 11.71875 7.445312 8.804688 9.71875 6.789062 L 12 9.070312 L 12 2 Z M 4.929688 2 "/>
</g>
</svg>
